# xmcd
#
# Track frame offsets: 
#        150
#        16765
#        33167
#        42770
#        56895
#        69990
#        83505
#        94085
#        104805
#        121827
#        131365
#        141795
#        154662
#        166302
#        179642
#        191580
#        203785
#        217852
#        230717
#        243372
#
# Disc length: 3451 seconds
#
# Revision: 0
# Processed by: cddbd v1.5.2PL0 Copyright (c) Steve Scherf et al.
# Submitted via: ExactAudioCopy v0.99pb5
#
DISCID=0c0d7914
DTITLE=Johnny Cash - Reader's Digest - Greatest Hits and Singles and P
DTITLE=reviously Unreleased
DYEAR=2010
DGENRE=Country
TTITLE0=The Preacher Said, "Jesus Said"
TTITLE1=Orphan Of The Road
TTITLE2=You've Got A New Light Shining In Your Eyes
TTITLE3=If Not For Love
TTITLE4=Man In Black
TTITLE5=Singin' In Vietnam Talkin' Blues
TTITLE6=Ned Kelly
TTITLE7=Look For Me
TTITLE8=Dear Mrs.
TTITLE9=I Talk To Jesus Everday
TTITLE10=Kate
TTITLE11=Melva's Wine
TTITLE12=A Thing Called Love
TTITLE13=I Prominse You
TTITLE14=Papa Was A Good Man
TTITLE15=Tear Stained Letter
TTITLE16=Mississippi Sand
TTITLE17=Daddy
TTITLE18=Arkansas Lovin' Man
TTITLE19=The Miracle Man
EXTD=
EXTT0=
EXTT1=
EXTT2=
EXTT3=
EXTT4=
EXTT5=
EXTT6=
EXTT7=
EXTT8=
EXTT9=
EXTT10=
EXTT11=
EXTT12=
EXTT13=
EXTT14=
EXTT15=
EXTT16=
EXTT17=
EXTT18=
EXTT19=
PLAYORDER=
